<mxfile host="app.diagrams.net" modified="2021-04-18T17:00:28.916Z" agent="5.0 (Macintosh; Intel Mac OS X 10_15_7) AppleWebKit/537.36 (KHTML, like Gecko) Chrome/89.0.4389.128 Safari/537.36" etag="AjH6gJa9Dy-vaXVFfljp" version="14.6.1" type="github">
  <diagram id="5xdeOlz6Ynit4_FdYeS-" name="Page-1">
    <mxGraphModel dx="767" dy="542" grid="1" gridSize="10" guides="1" tooltips="1" connect="1" arrows="1" fold="1" page="1" pageScale="1" pageWidth="850" pageHeight="1100" math="0" shadow="0">
      <root>
        <mxCell id="0" />
        <mxCell id="1" parent="0" />
        <mxCell id="Dl2Isrg3kIRI_8TTXz2q-1" value="&lt;div&gt;&lt;font face=&quot;helvetica neue&quot;&gt;&lt;span style=&quot;font-size: 22px&quot;&gt;&lt;br&gt;&lt;/span&gt;&lt;/font&gt;&lt;/div&gt;" style="rounded=1;whiteSpace=wrap;html=1;" vertex="1" parent="1">
          <mxGeometry x="100" y="30" width="180" height="290" as="geometry" />
        </mxCell>
        <mxCell id="Dl2Isrg3kIRI_8TTXz2q-4" value="Angular.js" style="text;html=1;strokeColor=none;fillColor=none;align=center;verticalAlign=middle;whiteSpace=wrap;rounded=0;" vertex="1" parent="1">
          <mxGeometry x="140" y="50" width="100" height="40" as="geometry" />
        </mxCell>
        <mxCell id="Dl2Isrg3kIRI_8TTXz2q-5" value="Bootstrap" style="rounded=1;whiteSpace=wrap;html=1;" vertex="1" parent="1">
          <mxGeometry x="130" y="100" width="120" height="60" as="geometry" />
        </mxCell>
        <mxCell id="Dl2Isrg3kIRI_8TTXz2q-16" style="edgeStyle=orthogonalEdgeStyle;rounded=0;orthogonalLoop=1;jettySize=auto;html=1;exitX=1;exitY=0.5;exitDx=0;exitDy=0;entryX=0;entryY=0.25;entryDx=0;entryDy=0;" edge="1" parent="1" source="Dl2Isrg3kIRI_8TTXz2q-6" target="Dl2Isrg3kIRI_8TTXz2q-8">
          <mxGeometry relative="1" as="geometry" />
        </mxCell>
        <mxCell id="Dl2Isrg3kIRI_8TTXz2q-6" value="Web3.js" style="rounded=1;whiteSpace=wrap;html=1;" vertex="1" parent="1">
          <mxGeometry x="130" y="170" width="120" height="60" as="geometry" />
        </mxCell>
        <mxCell id="Dl2Isrg3kIRI_8TTXz2q-7" value="Truffle" style="rounded=1;whiteSpace=wrap;html=1;" vertex="1" parent="1">
          <mxGeometry x="130" y="240" width="120" height="60" as="geometry" />
        </mxCell>
        <mxCell id="Dl2Isrg3kIRI_8TTXz2q-8" value="" style="rounded=1;whiteSpace=wrap;html=1;" vertex="1" parent="1">
          <mxGeometry x="390" y="35" width="170" height="280" as="geometry" />
        </mxCell>
        <mxCell id="Dl2Isrg3kIRI_8TTXz2q-9" value="Block Chain" style="text;html=1;strokeColor=none;fillColor=none;align=center;verticalAlign=middle;whiteSpace=wrap;rounded=0;" vertex="1" parent="1">
          <mxGeometry x="425" y="60" width="90" height="20" as="geometry" />
        </mxCell>
        <mxCell id="Dl2Isrg3kIRI_8TTXz2q-10" value="" style="endArrow=classic;html=1;exitX=1;exitY=0.5;exitDx=0;exitDy=0;" edge="1" parent="1">
          <mxGeometry width="50" height="50" relative="1" as="geometry">
            <mxPoint x="250" y="271" as="sourcePoint" />
            <mxPoint x="389" y="271" as="targetPoint" />
          </mxGeometry>
        </mxCell>
        <mxCell id="Dl2Isrg3kIRI_8TTXz2q-11" value="部署合約" style="text;html=1;strokeColor=none;fillColor=none;align=center;verticalAlign=middle;whiteSpace=wrap;rounded=0;" vertex="1" parent="1">
          <mxGeometry x="300" y="280" width="60" height="20" as="geometry" />
        </mxCell>
        <mxCell id="Dl2Isrg3kIRI_8TTXz2q-12" value="Ganache" style="rounded=1;whiteSpace=wrap;html=1;" vertex="1" parent="1">
          <mxGeometry x="415" y="230" width="120" height="60" as="geometry" />
        </mxCell>
        <mxCell id="Dl2Isrg3kIRI_8TTXz2q-14" style="edgeStyle=orthogonalEdgeStyle;rounded=0;orthogonalLoop=1;jettySize=auto;html=1;entryX=1;entryY=0.25;entryDx=0;entryDy=0;" edge="1" parent="1" source="Dl2Isrg3kIRI_8TTXz2q-13" target="Dl2Isrg3kIRI_8TTXz2q-7">
          <mxGeometry relative="1" as="geometry" />
        </mxCell>
        <mxCell id="Dl2Isrg3kIRI_8TTXz2q-13" value="MetaMask" style="rounded=1;whiteSpace=wrap;html=1;" vertex="1" parent="1">
          <mxGeometry x="415" y="130" width="120" height="60" as="geometry" />
        </mxCell>
        <mxCell id="Dl2Isrg3kIRI_8TTXz2q-15" value="確認交易" style="text;html=1;strokeColor=none;fillColor=none;align=center;verticalAlign=middle;whiteSpace=wrap;rounded=0;" vertex="1" parent="1">
          <mxGeometry x="340" y="165" width="50" height="20" as="geometry" />
        </mxCell>
        <mxCell id="Dl2Isrg3kIRI_8TTXz2q-17" value="查詢合約" style="text;html=1;strokeColor=none;fillColor=none;align=center;verticalAlign=middle;whiteSpace=wrap;rounded=0;" vertex="1" parent="1">
          <mxGeometry x="300" y="80" width="60" height="20" as="geometry" />
        </mxCell>
        <mxCell id="Dl2Isrg3kIRI_8TTXz2q-21" value="sol" style="rounded=1;whiteSpace=wrap;html=1;" vertex="1" parent="1">
          <mxGeometry x="140" y="247.5" width="30" height="12.5" as="geometry" />
        </mxCell>
      </root>
    </mxGraphModel>
  </diagram>
</mxfile>
